<svg xmlns="http://www.w3.org/2000/svg" xmlns:xlink="http://www.w3.org/1999/xlink" viewBox="0 0 399.23 285.67"><defs><style>.cls-1,.cls-10,.cls-11{fill:none;}.cls-2{clip-path:url(#clip-path);}.cls-3{fill:#6a3813;}.cls-4{fill:#662d91;}.cls-5{fill:#002e4a;}.cls-6,.cls-9{isolation:isolate;}.cls-6{opacity:0.49;}.cls-7{fill:#fff;}.cls-8{fill:#1a1a1a;}.cls-12,.cls-9{fill:#666;}.cls-9{opacity:0.28;}.cls-10,.cls-11{stroke:#002e4a;stroke-miterlimit:10;}.cls-10{stroke-width:2px;}.cls-11{stroke-width:3px;}.cls-13{fill:#ed1c24;}.cls-14{fill:#fbb03b;}.cls-15{fill:#29abe2;}</style><clipPath id="clip-path" transform="translate(-14.07 -11.86)"><path class="cls-1" d="M423.66,220.41c-3.25,27.23-4.87,40.85-12.59,51.55-6.56,9.09-22.53,24.25-184,28-7.53.17-12.76.26-14.38.29C44.13,303.06,24.49,285.5,16.9,276.5,5.67,263.19,3.65,248.3.94,228.25c-2.14-15.82-2.48-34.44,20-98.37C44.36,63.27,57.36,26.41,91.46,7.26c23.08-13,33.64-5.35,124-1.42,114,4.94,124.66-6,149,11.4,43.59,31.15,52.25,96.87,58.45,144C426.72,190.22,425.1,208.33,423.66,220.41Z"/></clipPath></defs><g id="Capa_2" data-name="Capa 2"><g id="Capa_1-2" data-name="Capa 1"><g id="Capa_2-2" data-name="Capa 2"><g id="Capa_1-2-2" data-name="Capa 1-2"><g class="cls-2"><path class="cls-3" d="M259.74,56.66c.78,8.67,4.19,11.87,12.36,29s6.41,17.31,10,21.2c9.15,10,23.1,10.9,35,11.65,14,.88,36,2.26,47.44-11.94,5.66-7,6.27-14.89,6.89-24.48C372.14,71,373.8,43,356,25.72,330.86,1.27,274.2,13.16,262.83,37.65A39.09,39.09,0,0,0,259.74,56.66Z" transform="translate(-14.07 -11.86)"/><path class="cls-4" d="M32.36,152.8l-9.44,11c-2.05,8.1-3.86,16.69-5.3,25.73a299.59,299.59,0,0,0,2.95,108L139.82,295A237.32,237.32,0,0,1,123.19,203a228.17,228.17,0,0,1,1.9-24.36c8.42,1.64,40.2,6.86,61-12.36,7.66-7.09,14.93-18.55,12.12-22.1-3.46-4.38-18.39,7.17-43.21,12-17.39,3.36-26.56.88-52.93-1.32A638.42,638.42,0,0,0,32.36,152.8Z" transform="translate(-14.07 -11.86)"/><path class="cls-5" d="M395,152.8l9.44,11c2,8.1,3.86,16.69,5.29,25.73a299.37,299.37,0,0,1-2.94,108L287.55,295A237.51,237.51,0,0,0,304.18,203a228.17,228.17,0,0,0-1.9-24.36c-8.42,1.64-40.2,6.86-61-12.36-7.66-7.09-14.93-18.55-12.12-22.1,3.46-4.38,18.39,7.17,43.21,12,17.39,3.36,26.56.88,52.93-1.32A638.68,638.68,0,0,1,395,152.8Z" transform="translate(-14.07 -11.86)"/><path class="cls-6" d="M397.75,213c-10.43,13.42-47.6,17.94-94.05,12.65l1-9q-.34-9.51-.68-19c8.62,1.14,63.44,7.74,81.94-21.4a37.21,37.21,0,0,0,3.58-7.34c9-3.86,13.07-1.87,14.47-1,7.92,5.21,4.9,24.6-1.41,37.28A55.07,55.07,0,0,1,397.75,213Z" transform="translate(-14.07 -11.86)"/><path class="cls-7" d="M273.92,78.57c.2,3.73,2.07,31.82,22.17,41.44,8.41,4,17.72,3.73,21.16,3.61a54.25,54.25,0,0,0,16.53-3.17q.74,12.33,1.48,24.7c-.51,2.85-1.63,5.92-4.21,7.69-2.78,1.9-5.38,1-5.7,1.9-.8,2.25,12.84,15.14,28.51,12.47,10.45-1.77,19.13-10,22.78-21a24.9,24.9,0,0,1-12.53-5.45c-12.37-10.5-9.85-32.23-9.2-37.68.08-.74.16-1.31.21-1.68,1.8-13.06,6.05-13.62,5.45-22.88-1.09-16.77-15.89-27.94-20.43-31.49-5.53-4.31-17.66-13.78-28-10.11-6.56,2.32-7.34,8.11-16.75,11.27-6.78,2.27-9,.17-13,2.31C272.69,55.78,273.72,74.74,273.92,78.57Z" transform="translate(-14.07 -11.86)"/><path class="cls-8" d="M231.53,84.78l101.75,83.86L244,280.46,140.28,195.71Z" transform="translate(-14.07 -11.86)"/><path class="cls-9" d="M265,114.47a6.21,6.21,0,0,1-.37.93,9.76,9.76,0,0,1-1,1.47c-.73.91-37.68,45.94-88.12,107.4L140.28,196l92-111.23,31.78,26.37A2.72,2.72,0,0,1,265,114.47Z" transform="translate(-14.07 -11.86)"/><path class="cls-5" d="M400.18,158.6c-1.82-2.69-7.67-10.37-17.47-12.09a23.3,23.3,0,0,0-6.07-.25,32.76,32.76,0,0,1-2.22,5.21c-1.34,2.53-2.16,3.29-2.75,4.37-2.63,4.85,2.61,10,1.75,14.43-.62,3.27-4.76,7.09-19.75,9.76,12.42,4.25,24,4.12,27.88-1.31,2.31-3.25,2.9-9.85,3.36-14.95.24-2.7.27-4.93.26-6.41,4.94,4,5.92,7.48,6.09,9.59,1,12.61-16.51,24.89-27.67,30.14-16.13,7.6-31.16,7-38.5,6.66-28.28-1.17-57.64-2.14-91.75-3.29l-11.29,16.12c92.78,12,162.5,7,173.85-10a59.08,59.08,0,0,0,8.56-22.34C405.21,178.54,406.58,168.08,400.18,158.6Z" transform="translate(-14.07 -11.86)"/><path class="cls-7" d="M222.05,216.58c-8.45.17-14.57-6.22-14.31-12.31s7.07-11.51,11.33-10.68c2.93.57,4,3.89,6.37,3.41s2.69-4.2,5.4-4.5a3.81,3.81,0,0,1,2.94,1.11c1.39,1.47,1.35,4.33-.44,6.85Z" transform="translate(-14.07 -11.86)"/><circle class="cls-10" cx="315.41" cy="71.15" r="13.65"/><circle class="cls-10" cx="269.43" cy="73.44" r="13.65"/><path class="cls-11" d="M343,80.56l17.66-.3" transform="translate(-14.07 -11.86)"/><path class="cls-11" d="M297.15,84.78a21.33,21.33,0,0,1,18.69-.29" transform="translate(-14.07 -11.86)"/><path class="cls-8" d="M169.24,56.24c-.78,8.67-4.19,11.87-12.36,29s-6.4,17.31-10,21.21c-9.15,10-23.1,10.89-35,11.64-14,.88-36,2.26-47.43-11.94-5.66-7-6.28-14.89-6.9-24.47C56.84,70.61,55.18,42.57,73,25.3,98.12.85,154.79,12.74,166.15,37.23A39.21,39.21,0,0,1,169.24,56.24Z" transform="translate(-14.07 -11.86)"/><path class="cls-6" d="M31.23,212.54c12,13.18,38.92,16.93,38.92,16.93a133.09,133.09,0,0,0,55.13-4.28l-1-9q.33-9.49.67-19c-8.62,1.14-63.44,7.74-81.94-21.4a36.09,36.09,0,0,1-3.57-7.34c-9-3.86-13.08-1.87-14.48-1-7.92,5.21-4.89,24.6,1.42,37.28A25.52,25.52,0,0,0,31.23,212.54Z" transform="translate(-14.07 -11.86)"/><path class="cls-7" d="M155.06,78.15c-.19,3.73-2.07,31.83-22.17,41.45-8.4,4-17.72,3.72-21.15,3.61A54,54,0,0,1,95.2,120q-.74,12.35-1.48,24.7c.51,2.85,1.63,5.93,4.21,7.69,2.78,1.9,5.38,1,5.7,1.9.8,2.26-12.84,15.14-28.51,12.48-10.45-1.78-19.13-10-22.78-21a24.9,24.9,0,0,0,12.53-5.45c12.38-10.5,9.85-32.22,9.21-37.67-.09-.74-.17-1.32-.22-1.69-1.8-13.06-6-13.62-5.45-22.88C69.5,61.34,84.3,50.16,88.85,46.61c5.53-4.31,17.66-13.77,28-10.11,6.56,2.33,7.34,8.11,16.76,11.27,6.77,2.27,9,.17,13,2.31C156.29,55.36,155.26,74.32,155.06,78.15Z" transform="translate(-14.07 -11.86)"/><path class="cls-4" d="M28.8,158.18c1.82-2.69,7.67-10.36,17.47-12.09a23.28,23.28,0,0,1,6.07-.25A32.84,32.84,0,0,0,54.56,151c1.34,2.54,2.16,3.29,2.75,4.38,2.64,4.84-2.6,10-1.75,14.42.63,3.27,4.76,7.1,19.75,9.76-12.42,4.25-24,4.12-27.88-1.31-2.31-3.25-2.9-9.85-3.35-15-.24-2.7-.28-4.93-.27-6.41-4.93,4-5.92,7.48-6.09,9.59-1,12.61,16.51,24.89,27.68,30.14,4.77,2.25,16.13,7,38.49,6.66,13.55-.22,36-2.4,62.66-14.05q4.75,7.37,9.5,14.73c-64.54,28.56-122.12,29.23-143,2.17-3.82-5-7.31-12-8.56-22.34C23.77,178.12,22.36,167.67,28.8,158.18Z" transform="translate(-14.07 -11.86)"/><path class="cls-7" d="M175.25,204.52c8.46.18,14.57-6.21,14.31-12.31s-7.06-11.5-11.33-10.67c-2.93.56-4,3.88-6.37,3.4s-2.69-4.19-5.4-4.5a3.83,3.83,0,0,0-2.94,1.12c-1.39,1.47-1.35,4.33.44,6.85Z" transform="translate(-14.07 -11.86)"/></g></g></g><path class="cls-12" d="M230.3,136.28c-12.58,1.36-23.24-10.65-25.18-20.92-1-5.18.64-7.92,6.38-23C219,72.68,222.69,62.7,223.2,54.72c.46-7.12-.5-17.62-7.8-30.85,17.12,9.47,22.37,19.27,24.12,26.24,3.45,13.79-5.34,22.53.35,37.94,3.8,10.31,9.21,10.43,10.29,18.8C251.58,118,244.16,134.79,230.3,136.28Z" transform="translate(-14.07 -11.86)"/><path class="cls-13" d="M232.4,136.31c-9,1-16.63-7.62-18-15-.7-3.71.46-5.67,4.57-16.5,5.33-14,8-21.19,8.37-26.91.33-5.1-.36-12.6-5.58-22.08,12.25,6.78,16,13.8,17.26,18.78,2.47,9.87-3.82,16.13.25,27.16,2.72,7.38,6.6,7.46,7.36,13.45C247.64,123.22,242.32,135.24,232.4,136.31Z" transform="translate(-14.07 -11.86)"/><path class="cls-14" d="M231.76,136.34c-6,.64-11.1-5.09-12-10-.46-2.48.31-3.79,3.05-11,3.56-9.37,5.34-14.14,5.59-18,.22-3.4-.24-8.41-3.73-14.73,8.18,4.52,10.69,9.2,11.52,12.53,1.64,6.58-2.55,10.76.17,18.12,1.81,4.92,4.4,5,4.91,9C241.92,127.6,238.38,135.62,231.76,136.34Z" transform="translate(-14.07 -11.86)"/><path class="cls-15" d="M349.57,59.46a28.93,28.93,0,0,1-1.9,10.45c-1.18,3-2.51,4.82-1.75,6.91a5.37,5.37,0,0,0,4.63,3.3c3.28.17,5.35-3.17,5.44-3.32C358.34,72.91,355.72,65.94,349.57,59.46Z" transform="translate(-14.07 -11.86)"/></g></g></svg>