<svg xmlns="http://www.w3.org/2000/svg" viewBox="0 0 25.15 25.15"><defs><style>.cls-1{fill:#ff5000;}</style></defs><g id="Capa_2" data-name="Capa 2"><g id="Capa_1-2" data-name="Capa 1"><g id="Grupo_24" data-name="Grupo 24"><path id="iconmonstr-instagram-15" class="cls-1" d="M12.58,2.27c3.35,0,3.75,0,5.08.07,3.41.16,5,1.77,5.16,5.15.05,1.33.07,1.73.07,5.09s0,3.75-.07,5.08c-.16,3.38-1.75,5-5.16,5.15-1.33.06-1.72.08-5.08.08s-3.76,0-5.08-.08c-3.42-.15-5-1.78-5.16-5.15-.06-1.33-.07-1.73-.07-5.08s0-3.76.07-5.09c.15-3.38,1.74-5,5.16-5.15C8.82,2.28,9.22,2.27,12.58,2.27Zm0-2.27C9.16,0,8.73,0,7.39.08,2.82.29.28,2.82.08,7.39,0,8.73,0,9.16,0,12.58s0,3.84.08,5.18c.2,4.57,2.74,7.11,7.31,7.32,1.34.06,1.77.07,5.19.07s3.84,0,5.18-.07c4.57-.21,7.11-2.75,7.32-7.32.06-1.34.07-1.77.07-5.18s0-3.85-.07-5.19C24.87,2.83,22.33.28,17.76.08,16.42,0,16,0,12.58,0Zm0,6.12A6.46,6.46,0,1,0,19,12.58h0A6.46,6.46,0,0,0,12.58,6.12Zm0,10.65a4.19,4.19,0,1,1,4.19-4.19,4.18,4.18,0,0,1-4.19,4.19ZM19.29,4.36a1.51,1.51,0,1,0,1.51,1.5A1.5,1.5,0,0,0,19.29,4.36Z"/></g></g></g></svg>