<svg xmlns="http://www.w3.org/2000/svg" xmlns:xlink="http://www.w3.org/1999/xlink" viewBox="0 0 444.43 294.16"><defs><style>.cls-1,.cls-10,.cls-9{fill:none;}.cls-2{clip-path:url(#clip-path);}.cls-3{fill:#6a3813;}.cls-4{fill:#002e4a;}.cls-5,.cls-8{isolation:isolate;}.cls-5{opacity:0.49;}.cls-6{fill:#fff;}.cls-7{fill:#1a1a1a;}.cls-8{fill:#666;opacity:0.28;}.cls-10,.cls-9{stroke:#002e4a;stroke-miterlimit:10;}.cls-9{stroke-width:2px;}.cls-10{stroke-width:3px;}.cls-11{fill:#662d91;}</style><clipPath id="clip-path" transform="translate(-16.45 -9.87)"><path class="cls-1" d="M465.85,148.45c-7.94,23.31-50.8,12.92-71,48.89-18.85,33.65,7.7,62.31-8.56,85.55-18.78,26.85-68.45,8.92-153.26,5.7-132.12-5-170.76,32.47-206.74,0C-18.3,248.3,6.15,159,11.37,141.74,36,60.43,113.27-5.26,154.66,7.72c12.63,4,20.75,14.89,40.63,15.68,22.77.91,38.78-12.34,47.05-17.11C304.71-29.6,483.22,97.5,465.85,148.45Z"/></clipPath></defs><g id="Capa_2" data-name="Capa 2"><g id="Capa_1-2" data-name="Capa 1"><g class="cls-2"><g id="Capa_2-2" data-name="Capa 2"><g id="Capa_1-2-2" data-name="Capa 1-2"><path class="cls-3" d="M85.49,61.12c.78,8.67,4.19,11.87,12.36,29s6.4,17.32,10,21.21c9.15,10,23.1,10.89,35,11.64,14,.88,36,2.26,47.43-11.94,5.66-7,6.28-14.88,6.9-24.47.71-11.07,2.37-39.11-15.41-56.38C156.61,5.72,99.94,17.62,88.58,42.11A39.33,39.33,0,0,0,85.49,61.12Z" transform="translate(-16.45 -9.87)"/><path class="cls-4" d="M220.76,157.26l21.39,145-102.34.79C135.43,287,116,214.86,117,176c.14-5.66.79-13.68,6.42-19.3,8-8,20.94-5.84,44.78-3.4C180.07,154.48,198.08,156.1,220.76,157.26Z" transform="translate(-16.45 -9.87)"/><path class="cls-5" d="M232.68,238.09a116.09,116.09,0,0,1-21.81,14.42C186.37,265,163,265.7,149.71,265q-.72-13.86-1.45-27.73c6.48.59,25.4,1.44,43.33-10.69,5.47-3.7,20-13.5,24-31.91a47,47,0,0,0-.39-21.37c8.1-3.42,12.21-2.56,14.47-1,7.66,5.48-.3,23.63,2.38,59.36C232.35,234.38,232.52,236.59,232.68,238.09Z" transform="translate(-16.45 -9.87)"/><path class="cls-6" d="M99.67,83c.19,3.73,2.07,31.83,22.17,41.45,8.4,4,17.72,3.72,21.15,3.61a54,54,0,0,0,16.54-3.18q.74,12.35,1.48,24.7c-.51,2.85-1.63,5.93-4.21,7.69-2.78,1.9-5.38,1-5.7,1.9-.8,2.26,12.84,15.14,28.51,12.48,10.45-1.78,19.13-10,22.78-21a24.9,24.9,0,0,1-12.53-5.45c-12.38-10.5-9.85-32.22-9.21-37.67.09-.74.17-1.31.22-1.69,1.8-13.06,6-13.61,5.45-22.88-1.09-16.76-15.89-27.94-20.44-31.48-5.53-4.32-17.66-13.78-28-10.11-6.53,2.32-7.35,8.14-16.77,11.32-6.77,2.27-9,.17-13,2.31C98.44,60.24,99.47,79.2,99.67,83Z" transform="translate(-16.45 -9.87)"/><path class="cls-4" d="M233.76,152.93c-3.44-1.75-6.15-1.22-25.3-2-2.59-.1-4.7-.2-6.07-.26a32.76,32.76,0,0,1-2.22,5.21s-.54,1-1.1,1.91-16.95,14.66-34.07,7.29a28.53,28.53,0,0,1-9-6.23l-6.47-.12c0,1.36,1.15,21.44,17.47,30.5,15.09,8.38,35.67,3.16,40.34-6.1,1.61-3.19,2.9-9.92,3.35-14.94.24-2.7.28-4.94.27-6.42a42.33,42.33,0,0,1,6.09,9.59c.49,1.07,7,15.77,1.91,31.38C213.4,219.62,198,227.19,188,232.07a80.87,80.87,0,0,1-40.76,7.77q1.77,9.67,3.55,19.36c48.83,2.32,87.5-20.22,95-46.82,4.41-15.72-.71-37.64-1.74-42C242.08,162.08,239.52,155.85,233.76,152.93Z" transform="translate(-16.45 -9.87)"/><path class="cls-6" d="M126.17,157.08a8.48,8.48,0,0,0,1.6,9.33c3.13,3.25,8.35,3,11.76.83,4.11-2.59,6-8.18,4.24-11.27C141.06,151.23,129.16,151.34,126.17,157.08Z" transform="translate(-16.45 -9.87)"/><path class="cls-7" d="M17.19,159.72l131.86.46,1.73,143.08-133.94.1Q17,231.54,17.19,159.72Z" transform="translate(-16.45 -9.87)"/><path class="cls-8" d="M61.35,161.93a5.24,5.24,0,0,1,.3.95,9.28,9.28,0,0,1,.19,1.75c0,1.17-.07,59.42-.18,138.93L16.45,304q.36-72.15.71-144.31l41.3.29A2.65,2.65,0,0,1,61.35,161.93Z" transform="translate(-16.45 -9.87)"/><path class="cls-6" d="M150.78,259.25c-5.81,6.14-14.66,6-18.81,1.54s-3.23-13.07.38-15.57c2.46-1.68,5.58-.11,6.9-2.14s-1.1-4.85.59-7a3.77,3.77,0,0,1,2.85-1.3c2,0,4,2.07,4.57,5.12Q149,249.58,150.78,259.25Z" transform="translate(-16.45 -9.87)"/><path class="cls-4" d="M102.71,161.54c.62-2.67-7.5-9-16.21-7.72-5.82.86-11.81,5.1-11.2,7.53C76.46,165.93,101.71,165.88,102.71,161.54Z" transform="translate(-16.45 -9.87)"/><path class="cls-6" d="M100,160.27c1.16,3.25-4.34,11-12.13,10.66-7.2-.34-12.22-7.41-11-10.61C78.76,155.22,98.26,155.27,100,160.27Z" transform="translate(-16.45 -9.87)"/><circle class="cls-9" cx="138.77" cy="77.62" r="13.65"/><circle class="cls-9" cx="92.79" cy="79.9" r="13.65"/><path class="cls-10" d="M168.72,85l17.63-.31" transform="translate(-16.45 -9.87)"/><path class="cls-10" d="M122.89,89.24a21.32,21.32,0,0,1,18.7-.28" transform="translate(-16.45 -9.87)"/><path class="cls-6" d="M36.78,164c-.09-1.47,6.57-1.29,11.41-5.29,7.48-6.32,6.43-19.32,7.12-19.25s-2.4,10.75,2.86,17.11c4.09,4.95,11.13,4.74,11,6.77s-6.64,1.21-11.77,5.7c-6.07,5.33-6,14.42-7.13,14.26s1.68-10-3.2-15C43.35,164.39,36.87,165.47,36.78,164Z" transform="translate(-16.45 -9.87)"/><path class="cls-6" d="M37.67,141.92c0-.51,2.27-.44,4-1.85,2.59-2.19,2.23-6.69,2.47-6.66s-.84,3.72,1,5.92C46.56,141,49,141,49,141.67s-2.3.42-4.07,2c-2.1,1.84-2.09,5-2.47,4.93s.58-3.44-1.11-5.18C39.93,142.05,37.7,142.42,37.67,141.92Z" transform="translate(-16.45 -9.87)"/><path class="cls-6" d="M60.13,149.2c0-.41,1.83-.35,3.19-1.5,2.1-1.77,1.81-5.41,2-5.39s-.67,3,.8,4.79c1.15,1.39,3.12,1.33,3.1,1.9s-1.86.34-3.3,1.6c-1.7,1.49-1.69,4-2,4s.47-2.79-.9-4.19C62,149.31,60.15,149.61,60.13,149.2Z" transform="translate(-16.45 -9.87)"/><path class="cls-6" d="M56.52,131.06c0-.32,1.46-.28,2.54-1.19,1.66-1.4,1.43-4.29,1.58-4.28s-.53,2.39.64,3.81c.91,1.1,2.47,1,2.45,1.51s-1.47.26-2.61,1.26c-1.35,1.19-1.35,3.21-1.59,3.18s.37-2.22-.71-3.33C58,131.15,56.54,131.39,56.52,131.06Z" transform="translate(-16.45 -9.87)"/></g></g><g id="Capa_2-3" data-name="Capa 2"><g id="Capa_1-2-3" data-name="Capa 1-2"><path class="cls-7" d="M211.89,54.24c.78,8.67,4.19,11.87,12.36,29s6.4,17.31,10,21.21c9.15,10,23.1,10.89,35,11.64,14,.88,36,2.26,47.43-11.94,5.66-7,6.28-14.89,6.9-24.47.71-11.07,2.37-39.11-15.41-56.38C283-1.15,226.34,10.74,215,35.23A39.13,39.13,0,0,0,211.89,54.24Z" transform="translate(-16.45 -9.87)"/><path class="cls-11" d="M348.77,150.8l9.44,11c2.05,8.1,3.86,16.69,5.3,25.73a299.58,299.58,0,0,1-2.95,108L241.31,293A237.48,237.48,0,0,0,257.94,201a228.37,228.37,0,0,0-1.9-24.36L244.87,175a21.93,21.93,0,0,0-2.08-6.08c-5.63-10.83-21.46-14.22-40.44-18.24-3.47-.74-5.23-1-5.2-1.29.11-1.29,39,2.2,80.35,2.92C294.85,152.62,319.24,152.55,348.77,150.8Z" transform="translate(-16.45 -9.87)"/><path class="cls-6" d="M226.07,76.15c.19,3.73,2.07,31.83,22.17,41.45,8.4,4,17.72,3.72,21.15,3.61A53.74,53.74,0,0,0,285.93,118q.74,12.36,1.48,24.7c-.51,2.85-1.63,5.93-4.21,7.69-2.78,1.9-5.38,1-5.7,1.9-.8,2.26,12.84,15.14,28.51,12.48,10.45-1.78,19.13-10,22.78-21a24.86,24.86,0,0,1-12.53-5.45c-12.38-10.5-9.85-32.22-9.21-37.67.09-.74.17-1.32.22-1.69,1.8-13.06,6-13.62,5.45-22.88-1.09-16.76-15.89-27.94-20.44-31.49-5.53-4.31-17.66-13.77-28-10.11-6.56,2.33-7.34,8.11-16.76,11.27-6.77,2.27-9,.17-13,2.31C224.84,53.36,225.87,72.32,226.07,76.15Z" transform="translate(-16.45 -9.87)"/><path class="cls-11" d="M354.15,179.7C381.62,170,394,164.61,394,164.61c7.69-3.14,15.77-6.74,24.16-10.87,8.91-4.39,17.15-8.87,24.71-13.31a22.55,22.55,0,0,0,6.3-18,249.14,249.14,0,0,1-93.67,22,238.43,238.43,0,0,1-26.66-.62q-1.56,3.42-3.11,6.84c-1.42,3-12.95,28.22-4.64,35.45C324.39,189,330,188.18,354.15,179.7Z" transform="translate(-16.45 -9.87)"/><path class="cls-6" d="M442.82,140.43c7.9,3,15.82-.89,17.64-6.72s-2.73-13.21-7-13.88c-2.95-.47-5.08,2.29-7.15,1s-1.11-4.85-3.55-6.06a3.88,3.88,0,0,0-3.15,0c-1.8.91-2.73,3.62-1.91,6.6Z" transform="translate(-16.45 -9.87)"/></g></g><path class="cls-11" d="M160.94,148.51a124.13,124.13,0,0,1-13.41.77c-5.61,0-8.78-.39-12.83,1.25a20.45,20.45,0,0,0-6.48,4.22c7.23-2.92,13.59-2,15.54,1.22a5.72,5.72,0,0,1,.53,4.19,27.28,27.28,0,0,1,3-.84,24.46,24.46,0,0,1,8.6-.25,12.22,12.22,0,0,0,3.12-3.3A12.72,12.72,0,0,0,160.94,148.51Z" transform="translate(-16.45 -9.87)"/></g></g></g></svg>