<svg xmlns="http://www.w3.org/2000/svg" viewBox="0 0 492.93 669.64"><defs><style>.cls-1{fill:#1b1464;}.cls-2{fill:#fff;}.cls-3{fill:#1a1a1a;}.cls-4{fill:#666;isolation:isolate;opacity:0.28;}.cls-5{fill:#662d91;}.cls-6{fill:#fd7315;}</style></defs><g id="Capa_2" data-name="Capa 2"><g id="Capa_1-2" data-name="Capa 1"><path class="cls-1" d="M279.38,275.68q-4,93.27-8,186.53l-35.19-2c4.94-26.5,20.13-113.7,4.65-140.73-2.26-3.94-8-14-14.94-13.61-6.22.39-10.34,9.18-11.94,12.61C201.57,345,202.61,437.22,203,462.21l-33.85-.66,10.62-185.87Z"/><path class="cls-2" d="M84.55,80c-2-1.61-8-7-8.44-15-.1-1.89-.22-4.84,1.66-7.42A11.08,11.08,0,0,1,90.07,54c3.81,1.54,3.71,4.69,9.1,8.89A27.69,27.69,0,0,0,106,66.81a70,70,0,0,1-10.93,8.08A70.72,70.72,0,0,1,84.55,80Z"/><path class="cls-3" d="M82.31,426l128.31,30.39-30.8,139.74L49.35,565.84Q65.82,495.94,82.31,426Z"/><path class="cls-4" d="M124.81,438.21a6.63,6.63,0,0,1,.08,1,9.31,9.31,0,0,1-.22,1.74c-.26,1.14-13.56,57.86-31.72,135.27l-44.13-9.81Q65.55,496.23,82.28,426l40.15,9.66A2.64,2.64,0,0,1,124.81,438.21Z"/><path class="cls-3" d="M168.25,441.83l131.83-2.71,5.17,143-133.9,3.32Q169.79,513.63,168.25,441.83Z"/><path class="cls-4" d="M212.45,443a6.24,6.24,0,0,1,.32.95,9.22,9.22,0,0,1,.23,1.74c0,1.17,1.36,59.41,3.16,138.9L171,586.11q-1.36-72.14-2.75-144.28l41.29-.71A2.67,2.67,0,0,1,212.45,443Z"/><path class="cls-3" d="M13.74,547.48l131,14.57L132.36,669.64H0Z"/><path class="cls-4" d="M57.41,554.4a9.16,9.16,0,0,1,.2,1,7.14,7.14,0,0,1,0,1.76c-.13,1.05-5.22,47.86-12.22,112.12L.63,668.57l13.08-121.1C15.88,547.74,57,552.89,57.41,554.4Z"/><path class="cls-3" d="M123.22,558.44l131.86.14q.81,55.53,1.61,111.06H122.91Q123.07,614,123.22,558.44Z"/><path class="cls-4" d="M167.39,560.54a6.54,6.54,0,0,1,.3,1,7.51,7.51,0,0,1,.2,1.75c0,1.06,0,45.46.11,106.4H122.91q.15-55.6.28-111.2l41.3.19A2.65,2.65,0,0,1,167.39,560.54Z"/><path class="cls-3" d="M266,452.14l130-22.05,26.12,140.69-132,23Q278.1,522.94,266,452.14Z"/><path class="cls-4" d="M309.91,446.78a5.76,5.76,0,0,1,.46.89,8.86,8.86,0,0,1,.49,1.69c.2,1.15,10.07,58.56,23.53,136.92l-44.47,8.18Q278,523.3,266,452.15l40.74-6.77A2.64,2.64,0,0,1,309.91,446.78Z"/><path class="cls-3" d="M229.31,558.1l131.86.39q.7,55.57,1.4,111.15H229.1Z"/><path class="cls-4" d="M273.47,560.29a5.5,5.5,0,0,1,.3,1A7.24,7.24,0,0,1,274,563c0,1.06,0,45.57-.08,106.65H229.1l.18-111.54,41.3.27A2.65,2.65,0,0,1,273.47,560.29Z"/><path class="cls-3" d="M328.7,562.51l128.08-31.32,36.15,138.45H354.7Q341.69,616.07,328.7,562.51Z"/><path class="cls-4" d="M372.09,554a5.69,5.69,0,0,1,.52.85,7.66,7.66,0,0,1,.61,1.65c.24,1,11.91,48.31,27.92,113.12H354.7q-13-53.57-26-107.12l40.15-9.67A2.65,2.65,0,0,1,372.09,554Z"/><path class="cls-3" d="M185.44,23c-3.09,8.14-1.43,12.51-1.59,31.49s-1.82,18.36-.29,23.44c3.85,13,16,19.91,26.37,25.79,12.2,6.92,31.37,17.8,47.87,10,8.15-3.82,12.16-10.64,16.92-19,5.48-9.64,19.25-34.13,10.83-57.44-11.92-33-68.07-47.12-89-30.08A39.32,39.32,0,0,0,185.44,23Z"/><path class="cls-2" d="M188.6,52.24c-1.47,3.43-12.08,29.52,1.78,47,5.8,7.27,14.3,11.1,17.43,12.5a54.06,54.06,0,0,0,16.27,4.38q-4.74,11.43-9.49,22.85c-1.7,2.34-4.06,4.62-7.15,5.07-3.33.49-5.27-1.45-5.95-.78-1.71,1.68,4.91,19.23,20.16,23.7,10.18,3,21.58-.61,29.68-8.91,1.74-2.65,3.48-6.23,2.22-9.11-1.78-4.1-7.6-2.18-10.93-6.18-7.25-8.71,7.88-32.73,8-33l.94-1.42h0c7.34-11,11.36-9.61,14.92-18.18,6.36-15.54-2-32.08-4.59-37.26-3.08-6.3-9.85-20.11-20.75-21.35-6.91-.78-10.15,4.08-20,2.79-7.08-.92-8.16-3.78-12.7-3.61C197.47,31.21,190.09,48.7,188.6,52.24Z"/><path class="cls-5" d="M270.07,176.11c21.19,20.7,23.65,36.67,43.6,54.3a109.42,109.42,0,0,0,34,20.2,10.15,10.15,0,0,0,10.65-11.12c-20-13.78-32.18-28.14-39.76-39.14-13.77-20-16.74-35.36-33.41-45.75-11.59-7.22-24.05-8.46-33-8.31l-9.55,9.16A136,136,0,0,1,270.07,176.11Z"/><path class="cls-2" d="M347.65,250.61c.44.56,5.71,7.08,13,6.12,4.17-.56,9.12-3.61,9.15-7,0-2.11-1.85-3.76-4.22-5.85a24,24,0,0,0-7.23-4.36Z"/><path class="cls-5" d="M252.13,146.29l32.75,19.82c-.39,2.56-.93,6.35-1.39,10.95-.9,8.8-1.61,21.32.17,45.21,1.47,19.63-1.12,39.52,1.55,59,.12.87.51,3.53-1,5.2-2.95,3.23-10.82.42-13.35-.42-26.06-8.63-80.92-5.71-89.82-2.67-.56.19-2.6,1-3.92,0-2.2-1.58-.94-6.79-.58-8.37,3.83-17,5.34-65.64,5.05-83.12a199.78,199.78,0,0,0-1.9-24.36c-12.54-9.66-25.48-20.27-38.62-31.89A741.2,741.2,0,0,1,84.55,80a70.7,70.7,0,0,0,8.86-4.2,70.3,70.3,0,0,0,12.58-9,247.93,247.93,0,0,0,44.44,45.5,247.5,247.5,0,0,0,50.69,31c1.54,1.63,13.42,13.73,30.78,12A36.6,36.6,0,0,0,252.13,146.29Z"/><path id="Trazado_4" data-name="Trazado 4" class="cls-6" d="M51.52,41c-1.25,24.83,26,40.11,46.57,28.79,21-11,21.22-44-.09-55C78.69,3.74,51.66,18.15,51.52,41ZM69,27.14A40.92,40.92,0,0,0,65.78,41H54.47c.7-7.56,3.08-13.52,7.17-17.78A17.55,17.55,0,0,0,66,25.8c1,.43,2,.86,3,1.34Zm5.88-12a45,45,0,0,0-5.13,9.57,33,33,0,0,1-6.18-3.43,23.81,23.81,0,0,1,11.31-6.14Zm3.74-.83a13.73,13.73,0,0,1,2.86-.16V27.7a18.07,18.07,0,0,1-4.08-.56c-1.66-.35-3.43-.83-5.17-1.34a53.17,53.17,0,0,1,6.39-11.49Zm2.86,16.27V41h-13A33.78,33.78,0,0,1,71.25,28.1a30.4,30.4,0,0,0,10.18,2.48Zm0,13.08V54.24a28,28,0,0,0-9.93,2.48,32.45,32.45,0,0,1-2-6.17,32.79,32.79,0,0,1-1-6.89Zm-15.69,0a45.88,45.88,0,0,0,3.05,14c-4.49,2.25-6.87,3.53-7.19,3.78a29.14,29.14,0,0,1-7-17.75ZM81.43,56.79V70.84l-2.86-.17a55.63,55.63,0,0,1-6.39-11.58,44.25,44.25,0,0,1,9.25-2.3ZM69.7,60.1A67.74,67.74,0,0,0,75,69.77a35.3,35.3,0,0,1-11.47-6.36A45.17,45.17,0,0,1,69.7,60.1ZM87,70.68l-2.82.16v-14a32,32,0,0,1,9.26,2A59.68,59.68,0,0,1,87,70.53Zm15.1-7.27a21,21,0,0,1-11.31,6,26.66,26.66,0,0,0,2.39-3.56C94,64.58,95.35,61,95.84,60a46.2,46.2,0,0,1,6.26,3.31Zm9-19.75a28,28,0,0,1-7,17.75c-1.9-1.33-4.63-2.5-7.27-4a40,40,0,0,0,3.32-13.79Zm-13.82,0a36.19,36.19,0,0,1-2.88,13.13A21.21,21.21,0,0,0,89.54,55a14.51,14.51,0,0,0-5.35-.7V43.66Zm-13-13.08A28.13,28.13,0,0,0,94.34,28.1c1.43,2.28,3,9.93,2.88,12.91h-13Zm19.75-7.35c4.42,4.09,7.22,11.76,7.13,17.78H100a37.27,37.27,0,0,0-3.12-13.87,54.23,54.23,0,0,0,7.09-3.9Zm-1.84-1.95A42.43,42.43,0,0,1,96,24.89,40.72,40.72,0,0,0,90.44,15,32.21,32.21,0,0,1,102,21.27Zm-15.26-7a44.28,44.28,0,0,1,6.62,11.31c-1.65,1.09-4.78,1.79-9.25,2.08V14.15a10.28,10.28,0,0,1,2.65.16Z"/><path class="cls-2" d="M103,69.16a7.89,7.89,0,0,0,4-4.37c.25-.75.89-2.68-.09-4.07s-3.17-1.42-5-1.43a6.61,6.61,0,0,0-4.3,1,5.13,5.13,0,0,0-2.21,4.06C95.63,66.83,98.73,69.35,103,69.16Z"/></g></g></svg>