<?xml version="1.0" encoding="utf-8"?>
<!-- Generator: Adobe Illustrator 25.4.1, SVG Export Plug-In . SVG Version: 6.00 Build 0)  -->
<svg version="1.1" id="Capa_1" xmlns="http://www.w3.org/2000/svg" xmlns:xlink="http://www.w3.org/1999/xlink" x="0px" y="0px"
	 viewBox="0 0 192.1 97.1" style="enable-background:new 0 0 192.1 97.1;" xml:space="preserve">
<g transform="translate(0.000000,405.000000) scale(0.100000,-0.100000)">
	<path d="M1144.1,3745.6c0-52.1-0.9-94.7-1.9-94.7s-5.8,5.4-10.5,11.7c-16.4,22-50.9,43.5-83,51.6c-21.5,5.4-57.5,5.8-81.1,0.9
		c-38.6-7.9-79.5-36.5-101.7-70.6c-23.6-36-31.6-67.8-29.9-120.8c0.9-30.1,2.1-38.3,7.5-55.2c25-77.8,86-123.9,163.8-123.9
		c44.9,0,80.4,14,109.8,43.2c9.1,8.9,18.7,19.6,21.5,23.4l5.1,7v-34.4l0.2-34.6h29.2h29.2v245.4v245.4h-29.2h-29.2V3745.6z
		 M1055.5,3662.7c41.1-12.9,71.3-45.1,83-88.8c5.4-20.6,5.4-61.5,0.2-81.8c-15-56.8-56.1-91.8-112.6-95.1
		c-37.4-2.3-67.3,8.9-92.3,34.1c-16.8,17.1-27.6,36.5-33.9,61c-5.4,20.3-5.4,61.5,0,81.8c11.5,44.6,43.5,78.8,84.6,90
		C1002.2,3668.8,1038.2,3668.3,1055.5,3662.7z"/>
	<path d="M43.3,3788.9v-23.4h63.1h63.1v-208v-208h30.4h30.4v208v208h63.1h63.1v23.4v23.4H199.9H43.3V3788.9z"/>
	<path d="M1441.6,3719c-77.4-12.4-140-66.1-160.1-137.4c-7-25-7-70.8,0-96.8c29.4-109.4,153.5-169.7,257.5-125
		c72.7,31.1,116.4,103.1,111.2,183.7c-1.6,29.7-6.5,47.9-20.1,76c-22.4,46.7-66.4,82.3-118.5,95.6
		C1494.1,3719.7,1458.4,3721.6,1441.6,3719z M1452.5,3659.2c0-23.6-0.9-36.2-2.3-36.2c-5.8,0-38.8,7.5-40.4,9.3
		c-2.6,2.3,8.6,26.4,21.5,46c7.9,12.4,11.7,15.7,19.6,16.8C1451.8,3695.2,1452.5,3679,1452.5,3659.2z M1487.8,3692.8
		c8.4-4.4,39-55.9,36-60.3c-1.2-2.1-16.1-5.8-33.2-8.4l-10-1.6v36.5c0,20.1,0.7,36.5,1.4,36.5
		C1482.7,3695.4,1485.3,3694.2,1487.8,3692.8z M1394.8,3662.9l-10.5-21l-12.6,6.3c-7,3.3-12.6,7.2-12.6,8.6
		c0,5.4,34.8,26.6,43.7,26.9C1404.2,3683.7,1400.7,3674.4,1394.8,3662.9z M1544.2,3673.9c10-5.4,20.1-11.7,22-13.8
		c3.5-3.7,3-4.7-6.1-10.3c-15.7-9.8-15.4-9.8-23.6,6.3c-4,7.9-9.3,17.5-11.9,21.3C1518.2,3686.3,1522.2,3685.6,1544.2,3673.9z
		 M1610.3,3607.8c8.4-17.3,15.2-41.6,15.2-54.2v-7.7h-27.8h-27.8l-1.4,6.5c-0.5,3.5-1.9,11.5-2.6,18c-0.9,6.3-4.2,20.3-7.5,31.3
		c-3,11-4.9,20.3-3.7,20.8c0.9,0.2,8.6,4.7,17.1,9.6l15.2,9.1l7.7-8.4C1599.1,3627.9,1606.1,3616.6,1610.3,3607.8z M1357.9,3626
		c9.1-4.7,16.6-8.6,16.8-8.6c0-0.2-2.1-7.7-5.1-17.1c-3-9.3-6.8-25.2-8.4-35.5l-2.8-18.9h-27.8c-25.5,0-27.8,0.5-26.6,4.2
		c0.5,2.1,1.9,8.6,2.6,14.5c4,25,25.7,70.1,33.7,70.1C1341.1,3634.6,1349,3630.9,1357.9,3626z M1429.6,3603.8l22.9-5.4v-26.2v-26.4
		h-34.1h-34.4l1.2,14.7c0.7,8.2,3.7,23.1,6.5,33c4.9,16.1,6.1,18,10.3,16.8C1404.9,3609.6,1417.3,3606.6,1429.6,3603.8z
		 M1536.9,3605c3.3-8.4,11.5-47,11.5-53.8c0-5.4-0.2-5.4-33.9-5.4h-33.9v26.4v26.6l14.7,2.6c8.2,1.6,18.9,4.2,24.1,6.1
		C1532.2,3612.4,1534.1,3612,1536.9,3605z M1360,3512.6c0.5-3,2.3-13.1,3.7-22.2c1.6-9.3,4.7-23.6,7.2-31.6
		c2.3-8.2,4.4-15.2,4.4-15.9c0-0.7-7.9-5.4-17.8-10.5l-17.5-9.3l-5.8,7c-13.3,16.1-31.3,63.3-31.3,82.3c0,5.4,0.2,5.4,28,5.4
		C1358.1,3517.8,1359.1,3517.6,1360,3512.6z M1452.5,3491.4V3465l-21.5-5.1c-11.9-3-24.1-5.8-26.6-6.5c-4.4-1.2-5.6,0.5-9.8,13.6
		c-5.6,16.8-9.8,36.9-9.8,45.1v5.8h33.9h33.9V3491.4z M1548.4,3515c0-7.9-5.4-35.1-9.3-49.1l-4.7-15.4l-11.5,4.2
		c-6.3,2.6-18.2,5.6-26.9,7.2l-15.4,2.6v26.6v26.6h33.9C1540,3517.8,1548.4,3517.1,1548.4,3515z M1625.5,3511.2
		c0-19.6-16.6-62.6-31.1-80.9l-5.6-7l-17.8,9.3c-9.8,4.9-18,10.3-18,11.5c0,1.4,2.8,10.8,6.1,20.8c3,10.3,7,26.2,8.4,35.8l2.8,17.1
		h27.6h27.6V3511.2z M1452.5,3405.4c0-33.4-0.5-37.4-3.7-36.2c-2.1,0.7-4.7,1.4-5.8,1.4c-5.8,0-36.9,57.3-33.2,61
		c2.1,2.1,33.9,11,40,11.2C1451.8,3443,1452.5,3433.9,1452.5,3405.4z M1509.6,3436.9c7.7-1.9,14.5-3.7,15-4.2
		c0.9-1.2-9.3-21.7-20.8-41.1c-11.9-20.3-11.9-20.1-17.8-22l-5.4-1.6v37.4v37.6l7.7-1.4C1492.3,3440.9,1502.1,3438.8,1509.6,3436.9z
		 M1395.1,3402.3c5.8-10.8,10.8-20.3,10.8-21c0-2.6-12.9,3.5-29.7,14c-9.3,5.8-17.1,11.5-17.1,12.4c0,1.6,20.6,14,23.8,14.3
		C1383.6,3422,1389.2,3413.1,1395.1,3402.3z M1558,3415.7c6.3-3.7,11.5-7.2,11.5-8.2c0-4.9-43-29.9-46-26.9
		c-1.4,1.6,18.7,41.4,21,41.4C1545.6,3422,1551.6,3419.2,1558,3415.7z"/>
	<path d="M549.3,3715c-64.7-14.3-115.9-62.6-133.2-126c-6.1-21.7-7.5-77.6-2.3-101.9c13.3-66.4,57-115,121.5-135.3
		c23.1-7.2,68-9.1,94.7-3.7c55.2,11.2,100,44.4,124.8,92.3c15,29.2,21,54.7,21,91.4c0,37.6-4.7,59.1-20.1,90.9
		c-10.3,21.3-14.5,27.1-32,44.6c-16.4,16.4-24.1,22-42.3,31.1c-12.2,6.1-28.5,12.6-36.2,14.7C625,3718.8,570.5,3719.7,549.3,3715z
		 M625.9,3663.8c20.8-5.4,36.5-14.5,52.1-30.1c23.6-23.6,34.8-50.7,37.4-91.1c5.4-83.4-48.4-146.3-125.3-146.3
		c-57.3,0-100.3,34.4-115.7,92.3c-5.1,18.9-5.1,65-0.2,86c10.3,43.2,39.3,75,80.6,88.3C571.5,3668.3,607.5,3668.8,625.9,3663.8z"/>
	<path d="M1707.5,3609.9c-14.7-12.4-6.5-36,12.6-36s27.3,23.6,12.6,36c-4,3.3-9.6,6.1-12.6,6.1
		C1717.1,3615.9,1711.5,3613.1,1707.5,3609.9z"/>
	<path d="M1798.4,3565.7v-24.5h-12.9h-12.9v-12.9v-12.9h12.9h12.9v-63.3c0-71.5,0.9-77.6,14.3-89.5c10-9.1,24.5-13.1,48.8-13.1h16.4
		v12.6v12.4l-19.2,1.2c-17.1,0.9-19.6,1.9-24.5,7.5c-5.4,6.3-5.4,6.8-5.4,69.4v62.9h24.5h24.5v12.9v12.9h-24.5h-24.5v24.5v24.5
		h-15.2h-15.2V3565.7z"/>
	<path d="M1705,3445.3v-95.8h15.2h15.2v95.8v95.8h-15.2H1705V3445.3z"/>
</g>
</svg>
