<svg xmlns="http://www.w3.org/2000/svg" viewBox="0 0 25.03 25.14"><defs><style>.cls-1{fill:#ff5000;}</style></defs><g id="Capa_2" data-name="Capa 2"><g id="Capa_1-2" data-name="Capa 1"><path id="iconmonstr-whatsapp-5" class="cls-1" d="M0,25.14l1.77-6.46A12.47,12.47,0,1,1,6.61,23.4Zm6.91-4A10.35,10.35,0,1,0,4,18.35L3,22.18Zm11.94-5.73c-.08-.13-.29-.21-.6-.37s-1.84-.91-2.13-1-.49-.15-.7.16-.8,1-1,1.22-.37.23-.68.08A8.51,8.51,0,0,1,11.26,14,9.49,9.49,0,0,1,9.52,11.8c-.18-.32,0-.48.14-.64l.46-.55.32-.52a.57.57,0,0,0,0-.54l-1-2.31c-.25-.61-.51-.53-.7-.54h-.6a1.11,1.11,0,0,0-.83.39,3.49,3.49,0,0,0-1.09,2.6A6.05,6.05,0,0,0,7.5,12.9a13.93,13.93,0,0,0,5.32,4.7,16.5,16.5,0,0,0,1.78.65,4.2,4.2,0,0,0,2,.13,3.21,3.21,0,0,0,2.1-1.48,2.6,2.6,0,0,0,.18-1.48Z"/></g></g></svg>